<svg display="none" xmlns="http://www.w3.org/2000/svg">
    <symbol id="close" viewBox="0 0 20 20">
        <path d="M19.3125 2.5625L11.875 10L19.3125 17.4375L17.4375 19.3125L10 11.875L2.5625 19.3125L0.6875 17.4375L8.125 10L0.6875 2.5625L2.5625 0.6875L10 8.125L17.4375 0.6875L19.3125 2.5625Z" />
    </symbol>
    <symbol id="cart" viewBox="0 0 17 17">
        <path d="M12.3574 13.7324C12.679 13.4108 13.0501 13.25 13.4707 13.25C13.8913 13.25 14.25 13.4108 14.5469 13.7324C14.8685 14.054 15.0293 14.4251 15.0293 14.8457C15.0293 15.2663 14.8685 15.6374 14.5469 15.959C14.25 16.2559 13.8913 16.4043 13.4707 16.4043C13.0501 16.4043 12.679 16.2559 12.3574 15.959C12.0358 15.6374 11.875 15.2663 11.875 14.8457C11.875 14.4251 12.0358 14.054 12.3574 13.7324ZM0.779297 0.595703H3.37695L4.11914 2.1543H15.8457C16.0684 2.1543 16.2539 2.24089 16.4023 2.41406C16.5508 2.5625 16.625 2.74805 16.625 2.9707C16.625 2.99544 16.5879 3.11914 16.5137 3.3418L13.6934 8.46289C13.3965 9.00716 12.9388 9.2793 12.3203 9.2793H6.41992L5.71484 10.5781L5.67773 10.6895C5.67773 10.8132 5.73958 10.875 5.86328 10.875H15.0293V12.4707H5.5293C5.10872 12.4707 4.73763 12.3099 4.41602 11.9883C4.11914 11.6667 3.9707 11.2956 3.9707 10.875C3.9707 10.6276 4.03255 10.3802 4.15625 10.1328L5.23242 8.16602L2.375 2.1543H0.779297V0.595703ZM4.41602 13.7324C4.73763 13.4108 5.10872 13.25 5.5293 13.25C5.94987 13.25 6.32096 13.4108 6.64258 13.7324C6.96419 14.054 7.125 14.4251 7.125 14.8457C7.125 15.2663 6.96419 15.6374 6.64258 15.959C6.32096 16.2559 5.94987 16.4043 5.5293 16.4043C5.10872 16.4043 4.73763 16.2559 4.41602 15.959C4.11914 15.6374 3.9707 15.2663 3.9707 14.8457C3.9707 14.4251 4.11914 14.054 4.41602 13.7324Z" />
    </symbol>
    <symbol id="search" viewBox="0 0 15 15">
        <path d="M3.00977 8.05664C3.70247 8.74935 4.54362 9.0957 5.5332 9.0957C6.52279 9.0957 7.36393 8.74935 8.05664 8.05664C8.74935 7.36393 9.0957 6.52279 9.0957 5.5332C9.0957 4.54362 8.74935 3.70247 8.05664 3.00977C7.36393 2.31706 6.52279 1.9707 5.5332 1.9707C4.54362 1.9707 3.70247 2.31706 3.00977 3.00977C2.31706 3.70247 1.9707 4.54362 1.9707 5.5332C1.9707 6.52279 2.31706 7.36393 3.00977 8.05664ZM10.2832 9.0957L14.2168 13.0293L13.0293 14.2168L9.0957 10.2832V9.65234L8.87305 9.42969C7.93294 10.2461 6.81966 10.6543 5.5332 10.6543C4.09831 10.6543 2.8737 10.1595 1.85938 9.16992C0.869792 8.18034 0.375 6.9681 0.375 5.5332C0.375 4.09831 0.869792 2.88607 1.85938 1.89648C2.8737 0.882161 4.09831 0.375 5.5332 0.375C6.9681 0.375 8.18034 0.882161 9.16992 1.89648C10.1595 2.88607 10.6543 4.09831 10.6543 5.5332C10.6543 6.05273 10.5306 6.64648 10.2832 7.31445C10.0358 7.95768 9.7513 8.47721 9.42969 8.87305L9.65234 9.0957H10.2832Z" />
    </symbol>
    <symbol id="playvideo" viewBox="0 0 20 20">
        <path d="M7.98438 14.5L13.9844 10L7.98438 5.5V14.5ZM2.92188 2.96875C4.89062 1 7.25 0.015625 10 0.015625C12.75 0.015625 15.0938 1 17.0312 2.96875C19 4.90625 19.9844 7.25 19.9844 10C19.9844 12.75 19 15.1094 17.0312 17.0781C15.0938 19.0156 12.75 19.9844 10 19.9844C7.25 19.9844 4.89062 19.0156 2.92188 17.0781C0.984375 15.1094 0.015625 12.75 0.015625 10C0.015625 7.25 0.984375 4.90625 2.92188 2.96875Z"/>
    </symbol>
    <symbol id="star" viewBox="0 0 20 19">
        <path d="M10 15.25L3.8125 19L5.45312 11.9688L0.015625 7.23438L7.1875 6.625L10 0.015625L12.8125 6.625L19.9844 7.23438L14.5469 11.9688L16.1875 19L10 15.25Z"/>
    </symbol>
    <symbol id="burger" viewBox="0 0 512 512">
        <path d="M480,224H32c-17.673,0-32,14.327-32,32s14.327,32,32,32h448c17.673,0,32-14.327,32-32S497.673,224,480,224z"/>
	    <path d="M32,138.667h448c17.673,0,32-14.327,32-32s-14.327-32-32-32H32c-17.673,0-32,14.327-32,32S14.327,138.667,32,138.667z"/>
	    <path d="M480,373.333H32c-17.673,0-32,14.327-32,32s14.327,32,32,32h448c17.673,0,32-14.327,32-32S497.673,373.333,480,373.333z"/>
    </symbol>
    <symbol id="strelochka" viewBox="0 0 8 12">
        <path d="M1.98438 0L7.98438 6L1.98438 12L0.578125 10.5938L5.17188 6L0.578125 1.40625L1.98438 0Z"/>

    </symbol>
    <symbol id="start-learning" viewBox="0 0 30 24">
       <path d="M15 0L29.6875 8V18.6875H27V9.4375L15 16L0.3125 8L15 0ZM5.6875 13.5625L15 18.6875L24.3125 13.5625V18.9375L15 24L5.6875 18.9375V13.5625Z"/>
    </symbol>
    <symbol id="securely" viewBox="0 0 24 30">
       <path d="M12 0.3125L24 5.6875V13.6875C24 17.3958 22.8542 20.7917 20.5625 23.875C18.2708 26.9167 15.4167 28.8542 12 29.6875C8.58333 28.8542 5.72917 26.9167 3.4375 23.875C1.14583 20.7917 0 17.3958 0 13.6875V5.6875L12 0.3125Z"/>
    </symbol>
    <symbol id="browse-course" viewBox="0 0 30 22">
       <path d="M6.625 12.875C8.20833 12.5 9.66667 12.3125 11 12.3125C12.3333 12.3125 13.7917 12.5 15.375 12.875C16.9583 13.25 18.3958 13.875 19.6875 14.75C21.0208 15.625 21.6875 16.6042 21.6875 17.6875V21.6875H0.3125V17.6875C0.3125 16.6042 0.958333 15.625 2.25 14.75C3.58333 13.875 5.04167 13.25 6.625 12.875ZM19 11C18.4583 11 17.875 10.8958 17.25 10.6875C18.4167 9.3125 19 7.64583 19 5.6875C19 4.89583 18.8333 4 18.5 3C18.1667 2 17.75 1.20833 17.25 0.625C17.875 0.416667 18.4583 0.3125 19 0.3125C20.4583 0.3125 21.7083 0.854167 22.75 1.9375C23.7917 2.97917 24.3125 4.22917 24.3125 5.6875C24.3125 7.14583 23.7917 8.39583 22.75 9.4375C21.7083 10.4792 20.4583 11 19 11ZM7.25 9.4375C6.20833 8.39583 5.6875 7.14583 5.6875 5.6875C5.6875 4.22917 6.20833 2.97917 7.25 1.9375C8.29167 0.854167 9.54167 0.3125 11 0.3125C12.4583 0.3125 13.7083 0.854167 14.75 1.9375C15.7917 2.97917 16.3125 4.22917 16.3125 5.6875C16.3125 7.14583 15.7917 8.39583 14.75 9.4375C13.7083 10.4792 12.4583 11 11 11C9.54167 11 8.29167 10.4792 7.25 9.4375ZM21.25 12.5C23.4583 12.8333 25.4167 13.4583 27.125 14.375C28.8333 15.25 29.6875 16.3542 29.6875 17.6875V21.6875H24.3125V17.6875C24.3125 15.6458 23.2917 13.9167 21.25 12.5Z"/>
    </symbol>
    <symbol id="hourse" viewBox="0 0 27 29">
       <path d="M20 12.6875C20.4167 12.6875 20.8542 12.7083 21.3125 12.75V3.3125C21.3125 2.60417 21.0417 2 20.5 1.5C20 0.958333 19.3958 0.6875 18.6875 0.6875H2.6875C1.9375 0.6875 1.29167 0.958333 0.75 1.5C0.25 2 0 2.60417 0 3.3125V24.6875C0 25.3958 0.25 26.0208 0.75 26.5625C1.29167 27.0625 1.9375 27.3125 2.6875 27.3125H12.375C11.8333 26.5625 11.4167 25.75 11.125 24.875C10.8333 23.9583 10.6875 23 10.6875 22C10.6875 20.7083 10.9167 19.5 11.375 18.375C11.875 17.25 12.5417 16.2708 13.375 15.4375C14.25 14.5625 15.25 13.8958 16.375 13.4375C17.5 12.9375 18.7083 12.6875 20 12.6875ZM5.3125 12.6875V3.3125H12V12.6875L8.6875 10.6875L5.3125 12.6875ZM20 15.3125C18.7917 15.3125 17.6667 15.625 16.625 16.25C15.625 16.8333 14.8125 17.6458 14.1875 18.6875C13.6042 19.6875 13.3125 20.7917 13.3125 22C13.3125 23.2083 13.6042 24.3333 14.1875 25.375C14.8125 26.375 15.625 27.1875 16.625 27.8125C17.6667 28.3958 18.7917 28.6875 20 28.6875C21.2083 28.6875 22.3125 28.3958 23.3125 27.8125C24.3542 27.1875 25.1667 26.375 25.75 25.375C26.375 24.3333 26.6875 23.2083 26.6875 22C26.6875 20.7917 26.375 19.6875 25.75 18.6875C25.1667 17.6458 24.3542 16.8333 23.3125 16.25C22.3125 15.625 21.2083 15.3125 20 15.3125ZM18.3125 25.3125V18.6875L23.6875 22L18.3125 25.3125Z"/>
    </symbol>
    <symbol id="community" viewBox="0 0 28 28">
       <path d="M17.25 12.125C17.6667 12.5 18.1458 12.6875 18.6875 12.6875C19.2292 12.6875 19.6875 12.5 20.0625 12.125C20.4792 11.7083 20.6875 11.2292 20.6875 10.6875C20.6875 10.1458 20.4792 9.6875 20.0625 9.3125C19.6875 8.89583 19.2292 8.6875 18.6875 8.6875C18.1458 8.6875 17.6667 8.89583 17.25 9.3125C16.875 9.6875 16.6875 10.1458 16.6875 10.6875C16.6875 11.2292 16.875 11.7083 17.25 12.125ZM9.9375 20.5625C11.1458 21.5208 12.5 22 14 22C15.5 22 16.8542 21.5208 18.0625 20.5625C19.2708 19.5625 20.1458 18.2708 20.6875 16.6875H7.3125C7.85417 18.2708 8.72917 19.5625 9.9375 20.5625ZM10.6875 9.3125C10.3125 8.89583 9.85417 8.6875 9.3125 8.6875C8.77083 8.6875 8.29167 8.89583 7.875 9.3125C7.5 9.6875 7.3125 10.1458 7.3125 10.6875C7.3125 11.2292 7.5 11.7083 7.875 12.125C8.29167 12.5 8.77083 12.6875 9.3125 12.6875C9.85417 12.6875 10.3125 12.5 10.6875 12.125C11.1042 11.7083 11.3125 11.2292 11.3125 10.6875C11.3125 10.1458 11.1042 9.6875 10.6875 9.3125ZM4.5625 4.625C7.1875 2 10.3333 0.6875 14 0.6875C17.6667 0.6875 20.7917 2 23.375 4.625C26 7.20833 27.3125 10.3333 27.3125 14C27.3125 17.6667 26 20.8125 23.375 23.4375C20.7917 26.0208 17.6667 27.3125 14 27.3125C10.3333 27.3125 7.1875 26.0208 4.5625 23.4375C1.97917 20.8125 0.6875 17.6667 0.6875 14C0.6875 10.3333 1.97917 7.20833 4.5625 4.625Z"/>
    </symbol>
    <symbol id="coaching" viewBox="0 0 22 22">
       <path d="M3.9375 15.1875C6.39583 14.1875 8.75 13.6875 11 13.6875C13.25 13.6875 15.5833 14.1875 18 15.1875C20.4583 16.1458 21.6875 17.4167 21.6875 19V21.6875H0.3125V19C0.3125 17.4167 1.52083 16.1458 3.9375 15.1875ZM14.75 9.4375C13.7083 10.4792 12.4583 11 11 11C9.54167 11 8.29167 10.4792 7.25 9.4375C6.20833 8.39583 5.6875 7.14583 5.6875 5.6875C5.6875 4.22917 6.20833 2.97917 7.25 1.9375C8.29167 0.854167 9.54167 0.3125 11 0.3125C12.4583 0.3125 13.7083 0.854167 14.75 1.9375C15.7917 2.97917 16.3125 4.22917 16.3125 5.6875C16.3125 7.14583 15.7917 8.39583 14.75 9.4375Z"/>
    </symbol>
    <symbol id="facebook" viewBox="0 0 10 18">
       <path d="M9.5 3H6.5C5.9477 3 5.5 3.44772 5.5 4V7H9.5C9.6137 6.99748 9.7216 7.0504 9.7892 7.1419C9.8568 7.2334 9.8758 7.352 9.84 7.46L9.1 9.66C9.0318 9.8619 8.8431 9.9984 8.63 10H5.5V17.5C5.5 17.7761 5.2761 18 5 18H2.5C2.22386 18 2 17.7761 2 17.5V10H0.5C0.22386 10 0 9.7761 0 9.5V7.5C0 7.2239 0.22386 7 0.5 7H2V4C2 1.79086 3.7909 0 6 0H9.5C9.7761 0 10 0.22386 10 0.5V2.5C10 2.77614 9.7761 3 9.5 3Z"/>
    </symbol>
    <symbol id="twitter" viewBox="0 0 18 16">
        <path d="M17.9728 2.7174C17.5084 3.33692 16.947 3.87733 16.3103 4.31776C16.3103 4.47959 16.3103 4.64142 16.3103 4.81225C16.3154 7.7511 15.1415 10.5691 13.0518 12.6345C10.962 14.6999 8.1312 15.8399 5.19405 15.7989C3.49599 15.8046 1.81967 15.4169 0.296422 14.6661C0.214282 14.6302 0.161312 14.549 0.161622 14.4593V14.3604C0.161622 14.2313 0.266232 14.1267 0.395272 14.1267C2.06442 14.0716 3.67402 13.4929 4.99634 12.4724C3.48553 12.4419 2.12619 11.5469 1.5006 10.1707C1.46901 10.0956 1.47884 10.0093 1.52657 9.9432C1.57429 9.8771 1.653 9.8407 1.73425 9.8471C2.19342 9.8932 2.65718 9.8505 3.1002 9.7212C1.43239 9.375 0.179212 7.9904 -0.000137933 6.2957C-0.00650793 6.2144 0.029922 6.1357 0.096002 6.0879C0.162072 6.0402 0.248242 6.0303 0.323382 6.062C0.770942 6.2595 1.25409 6.3635 1.74324 6.3676C0.281842 5.40846 -0.349388 3.58405 0.206552 1.92622C0.263942 1.76513 0.401812 1.64612 0.569502 1.61294C0.737182 1.57975 0.909962 1.63728 1.02432 1.76439C2.99639 3.86325 5.70604 5.11396 8.5819 5.25279C8.5083 4.95885 8.4721 4.65676 8.4741 4.35372C8.501 2.76472 9.4842 1.34921 10.9634 0.769872C12.4425 0.190542 14.1249 0.562032 15.223 1.71044C15.9714 1.56785 16.695 1.31645 17.3707 0.964212C17.4202 0.933312 17.483 0.933312 17.5325 0.964212C17.5634 1.01373 17.5634 1.07652 17.5325 1.12604C17.2052 1.87552 16.6523 2.50412 15.9509 2.92419C16.5651 2.85296 17.1685 2.70807 17.7482 2.49264C17.797 2.45942 17.8611 2.45942 17.9099 2.49264C17.9508 2.51134 17.9814 2.54711 17.9935 2.59042C18.0056 2.63373 17.998 2.68018 17.9728 2.7174Z" />
    </symbol>
    <symbol id="instagram" viewBox="-100.7682 -167.947 873.3244 1007.682">
        <path d="M335.895 0c-91.224 0-102.663.387-138.49 2.021-35.752 1.631-60.169 7.31-81.535 15.612-22.088 8.584-40.82 20.07-59.493 38.743-18.674 18.673-30.16 37.407-38.743 59.495C9.33 137.236 3.653 161.653 2.02 197.405.386 233.232 0 244.671 0 335.895c0 91.222.386 102.661 2.02 138.488 1.633 35.752 7.31 60.169 15.614 81.534 8.584 22.088 20.07 40.82 38.743 59.495 18.674 18.673 37.405 30.159 59.493 38.743 21.366 8.302 45.783 13.98 81.535 15.612 35.827 1.634 47.266 2.021 138.49 2.021 91.222 0 102.661-.387 138.488-2.021 35.752-1.631 60.169-7.31 81.534-15.612 22.088-8.584 40.82-20.07 59.495-38.743 18.673-18.675 30.159-37.407 38.743-59.495 8.302-21.365 13.981-45.782 15.612-81.534 1.634-35.827 2.021-47.266 2.021-138.488 0-91.224-.387-102.663-2.021-138.49-1.631-35.752-7.31-60.169-15.612-81.534-8.584-22.088-20.07-40.822-38.743-59.495-18.675-18.673-37.407-30.159-59.495-38.743-21.365-8.302-45.782-13.981-81.534-15.612C438.556.387 427.117 0 335.895 0zm0 60.521c89.686 0 100.31.343 135.729 1.959 32.75 1.493 50.535 6.965 62.37 11.565 15.68 6.094 26.869 13.372 38.622 25.126 11.755 11.754 19.033 22.944 25.127 38.622 4.6 11.836 10.072 29.622 11.565 62.371 1.616 35.419 1.959 46.043 1.959 135.73 0 89.687-.343 100.311-1.959 135.73-1.493 32.75-6.965 50.535-11.565 62.37-6.094 15.68-13.372 26.869-25.127 38.622-11.753 11.755-22.943 19.033-38.621 25.127-11.836 4.6-29.622 10.072-62.371 11.565-35.413 1.616-46.036 1.959-135.73 1.959-89.694 0-100.315-.343-135.73-1.96-32.75-1.492-50.535-6.964-62.37-11.564-15.68-6.094-26.869-13.372-38.622-25.127-11.754-11.753-19.033-22.943-25.127-38.621-4.6-11.836-10.071-29.622-11.565-62.371-1.616-35.419-1.959-46.043-1.959-135.73 0-89.687.343-100.311 1.959-135.73 1.494-32.75 6.965-50.535 11.565-62.37 6.094-15.68 13.373-26.869 25.126-38.622 11.754-11.755 22.944-19.033 38.622-25.127 11.836-4.6 29.622-10.072 62.371-11.565 35.419-1.616 46.043-1.959 135.73-1.959"/><path d="M335.895 447.859c-61.838 0-111.966-50.128-111.966-111.964 0-61.838 50.128-111.966 111.966-111.966 61.836 0 111.964 50.128 111.964 111.966 0 61.836-50.128 111.964-111.964 111.964zm0-284.451c-95.263 0-172.487 77.224-172.487 172.487 0 95.261 77.224 172.485 172.487 172.485 95.261 0 172.485-77.224 172.485-172.485 0-95.263-77.224-172.487-172.485-172.487m219.608-6.815c0 22.262-18.047 40.307-40.308 40.307-22.26 0-40.307-18.045-40.307-40.307 0-22.261 18.047-40.308 40.307-40.308 22.261 0 40.308 18.047 40.308 40.308"/>
    </symbol>
</svg>