<svg width="28" height="28" viewBox="0 0 28 28" fill="none" xmlns="http://www.w3.org/2000/svg">
<path d="M17.25 12.125C17.6667 12.5 18.1458 12.6875 18.6875 12.6875C19.2292 12.6875 19.6875 12.5 20.0625 12.125C20.4792 11.7083 20.6875 11.2292 20.6875 10.6875C20.6875 10.1458 20.4792 9.6875 20.0625 9.3125C19.6875 8.89583 19.2292 8.6875 18.6875 8.6875C18.1458 8.6875 17.6667 8.89583 17.25 9.3125C16.875 9.6875 16.6875 10.1458 16.6875 10.6875C16.6875 11.2292 16.875 11.7083 17.25 12.125ZM9.9375 20.5625C11.1458 21.5208 12.5 22 14 22C15.5 22 16.8542 21.5208 18.0625 20.5625C19.2708 19.5625 20.1458 18.2708 20.6875 16.6875H7.3125C7.85417 18.2708 8.72917 19.5625 9.9375 20.5625ZM10.6875 9.3125C10.3125 8.89583 9.85417 8.6875 9.3125 8.6875C8.77083 8.6875 8.29167 8.89583 7.875 9.3125C7.5 9.6875 7.3125 10.1458 7.3125 10.6875C7.3125 11.2292 7.5 11.7083 7.875 12.125C8.29167 12.5 8.77083 12.6875 9.3125 12.6875C9.85417 12.6875 10.3125 12.5 10.6875 12.125C11.1042 11.7083 11.3125 11.2292 11.3125 10.6875C11.3125 10.1458 11.1042 9.6875 10.6875 9.3125ZM4.5625 4.625C7.1875 2 10.3333 0.6875 14 0.6875C17.6667 0.6875 20.7917 2 23.375 4.625C26 7.20833 27.3125 10.3333 27.3125 14C27.3125 17.6667 26 20.8125 23.375 23.4375C20.7917 26.0208 17.6667 27.3125 14 27.3125C10.3333 27.3125 7.1875 26.0208 4.5625 23.4375C1.97917 20.8125 0.6875 17.6667 0.6875 14C0.6875 10.3333 1.97917 7.20833 4.5625 4.625Z" fill="white"/>
</svg>
