<svg width="27" height="29" viewBox="0 0 27 29" fill="none" xmlns="http://www.w3.org/2000/svg">
<path d="M20 12.6875C20.4167 12.6875 20.8542 12.7083 21.3125 12.75V3.3125C21.3125 2.60417 21.0417 2 20.5 1.5C20 0.958333 19.3958 0.6875 18.6875 0.6875H2.6875C1.9375 0.6875 1.29167 0.958333 0.75 1.5C0.25 2 0 2.60417 0 3.3125V24.6875C0 25.3958 0.25 26.0208 0.75 26.5625C1.29167 27.0625 1.9375 27.3125 2.6875 27.3125H12.375C11.8333 26.5625 11.4167 25.75 11.125 24.875C10.8333 23.9583 10.6875 23 10.6875 22C10.6875 20.7083 10.9167 19.5 11.375 18.375C11.875 17.25 12.5417 16.2708 13.375 15.4375C14.25 14.5625 15.25 13.8958 16.375 13.4375C17.5 12.9375 18.7083 12.6875 20 12.6875ZM5.3125 12.6875V3.3125H12V12.6875L8.6875 10.6875L5.3125 12.6875ZM20 15.3125C18.7917 15.3125 17.6667 15.625 16.625 16.25C15.625 16.8333 14.8125 17.6458 14.1875 18.6875C13.6042 19.6875 13.3125 20.7917 13.3125 22C13.3125 23.2083 13.6042 24.3333 14.1875 25.375C14.8125 26.375 15.625 27.1875 16.625 27.8125C17.6667 28.3958 18.7917 28.6875 20 28.6875C21.2083 28.6875 22.3125 28.3958 23.3125 27.8125C24.3542 27.1875 25.1667 26.375 25.75 25.375C26.375 24.3333 26.6875 23.2083 26.6875 22C26.6875 20.7917 26.375 19.6875 25.75 18.6875C25.1667 17.6458 24.3542 16.8333 23.3125 16.25C22.3125 15.625 21.2083 15.3125 20 15.3125ZM18.3125 25.3125V18.6875L23.6875 22L18.3125 25.3125Z" fill="white"/>
</svg>
